# xmcd
#
# Track frame offsets: 
#        150
#        26712
#        52758
#        83769
#        105529
#        132674
#        155378
#        178820
#        206767
#        230515
#        256904
#        282755
#
# Disc length: 4113 seconds
#
# Revision: 0
# Processed by: cddbd v1.5.2PL0 Copyright (c) Steve Scherf et al.
# Submitted via: ExactAudioCopy v1.0b3
#
DISCID=a0100f0c
DTITLE=Various Artist - Mua Bui 8
DYEAR=1900
DGENRE=
TTITLE0=Minh Thuan, Phuong Thanh - Doi canh thien than
TTITLE1=Minh Tuyet - Hay de tinh ngu yen
TTITLE2=Tai Linh - Trang hon tui
TTITLE3=Tai Linh, Kim Tu Long - Chuyen ngay xua
TTITLE4=Che Thanh - Giot le dai trang
TTITLE5=Tu Chau - Gio dong
TTITLE6=Tai Linh, Dinh Van - Lam quen
TTITLE7=Cam Ly - Ai mang di niem dau
TTITLE8=Canh Han - Co phai em khong
TTITLE9=Mai Tuan, Yen Khoa - Doan cuoi tinh yeu
TTITLE10=Ha Phuong - Thuong anh mat doi mat cho
TTITLE11=Lam Truong - Khi yeu
EXTD=
EXTT0=
EXTT1=
EXTT2=
EXTT3=
EXTT4=
EXTT5=
EXTT6=
EXTT7=
EXTT8=
EXTT9=
EXTT10=
EXTT11=
PLAYORDER=
